<svg width="1920" height="289" viewBox="0 0 1920 289" fill="none" xmlns="http://www.w3.org/2000/svg">
<g clip-path="url(#clip0_75_25)">
<path d="M0 249.09L45.7 240.971C91.3 232.783 182.7 216.544 274.2 218.333C365.7 220.19 457.3 240.145 548.8 242.347C640.3 244.48 731.7 228.929 823 227.071C914.3 225.214 1005.7 237.186 1097 242.898C1188.3 248.609 1279.7 248.196 1371.2 247.233C1462.7 246.338 1554.3 244.962 1645.8 251.843C1737.3 258.724 1828.7 273.862 1874.3 281.431L1920 289V0H1874.3C1828.7 0 1737.3 0 1645.8 0C1554.3 0 1462.7 0 1371.2 0C1279.7 0 1188.3 0 1097 0C1005.7 0 914.3 0 823 0C731.7 0 640.3 0 548.8 0C457.3 0 365.7 0 274.2 0C182.7 0 91.3 0 45.7 0H0V249.09Z" fill="#19414E"/>
<path d="M0 189.914L45.7 200.442C91.3 211.039 182.7 232.095 274.2 236.911C365.7 241.728 457.3 230.305 548.8 219.365C640.3 208.493 731.7 198.171 823 192.323C914.3 186.474 1005.7 185.098 1097 186.13C1188.3 187.162 1279.7 190.602 1371.2 198.378C1462.7 206.222 1554.3 218.333 1645.8 211.108C1737.3 203.883 1828.7 177.322 1874.3 163.973L1920 150.693V0H1874.3C1828.7 0 1737.3 0 1645.8 0C1554.3 0 1462.7 0 1371.2 0C1279.7 0 1188.3 0 1097 0C1005.7 0 914.3 0 823 0C731.7 0 640.3 0 548.8 0C457.3 0 365.7 0 274.2 0C182.7 0 91.3 0 45.7 0H0V189.914Z" fill="#163A44"/>
<path d="M0 146.564L45.7 144.982C91.3 143.33 182.7 140.165 274.2 140.715C365.7 141.266 457.3 145.67 548.8 151.381C640.3 157.092 731.7 164.248 823 164.936C914.3 165.625 1005.7 159.845 1097 158.95C1188.3 158.055 1279.7 161.909 1371.2 162.597C1462.7 163.285 1554.3 160.808 1645.8 158.055C1737.3 155.303 1828.7 152.275 1874.3 150.83L1920 149.317V0H1874.3C1828.7 0 1737.3 0 1645.8 0C1554.3 0 1462.7 0 1371.2 0C1279.7 0 1188.3 0 1097 0C1005.7 0 914.3 0 823 0C731.7 0 640.3 0 548.8 0C457.3 0 365.7 0 274.2 0C182.7 0 91.3 0 45.7 0H0V146.564Z" fill="#13333B"/>
<path d="M0 78.4429L45.7 83.81C91.3 89.2459 182.7 99.9802 274.2 103.421C365.7 106.861 457.3 103.008 548.8 104.728C640.3 106.448 731.7 113.742 823 119.935C914.3 126.128 1005.7 131.22 1097 123.169C1188.3 115.118 1279.7 94.0626 1371.2 90.2781C1462.7 86.4936 1554.3 99.9802 1645.8 101.976C1737.3 103.902 1828.7 94.269 1874.3 89.4524L1920 84.6357V0H1874.3C1828.7 0 1737.3 0 1645.8 0C1554.3 0 1462.7 0 1371.2 0C1279.7 0 1188.3 0 1097 0C1005.7 0 914.3 0 823 0C731.7 0 640.3 0 548.8 0C457.3 0 365.7 0 274.2 0C182.7 0 91.3 0 45.7 0H0V78.4429Z" fill="#112C32"/>
<path d="M0 39.2214L45.7 45.0702C91.3 50.919 182.7 62.6167 274.2 66.8829C365.7 71.0802 457.3 67.915 548.8 62.2726C640.3 56.6302 731.7 48.6483 823 52.7769C914.3 56.9055 1005.7 73.1445 1097 73.9702C1188.3 74.796 1279.7 60.0707 1371.2 55.0476C1462.7 50.0245 1554.3 54.5659 1645.8 60.69C1737.3 66.7452 1828.7 74.3143 1874.3 78.0988L1920 81.8833V0H1874.3C1828.7 0 1737.3 0 1645.8 0C1554.3 0 1462.7 0 1371.2 0C1279.7 0 1188.3 0 1097 0C1005.7 0 914.3 0 823 0C731.7 0 640.3 0 548.8 0C457.3 0 365.7 0 274.2 0C182.7 0 91.3 0 45.7 0H0V39.2214Z" fill="#0F2629"/>
</g>
<defs>
<clipPath id="clip0_75_25">
<rect width="1920" height="289" fill="white"/>
</clipPath>
</defs>
</svg>
