<svg id="visual" xmlns="http://www.w3.org/2000/svg" xmlns:xlink="http://www.w3.org/1999/xlink" version="1.1" viewBox="0 0 1920 159.38"><path d="M0 143L26.7 140.8C53.3 138.7 106.7 134.3 160 133.5C213.3 132.7 266.7 135.3 320 134C373.3 132.7 426.7 127.3 480 121.3C533.3 115.3 586.7 108.7 640 109.7C693.3 110.7 746.7 119.3 800 124.3C853.3 129.3 906.7 130.7 960 135.7C1013.3 140.7 1066.7 149.3 1120 154.3C1173.3 159.3 1226.7 160.7 1280 158C1333.3 155.3 1386.7 148.7 1440 144C1493.3 139.3 1546.7 136.7 1600 131.2C1653.3 125.7 1706.7 117.3 1760 114.5C1813.3 111.7 1866.7 114.3 1893.3 115.7L1920 117L1920 0L1893.3 0C1866.7 0 1813.3 0 1760 0C1706.7 0 1653.3 0 1600 0C1546.7 0 1493.3 0 1440 0C1386.7 0 1333.3 0 1280 0C1226.7 0 1173.3 0 1120 0C1066.7 0 1013.3 0 960 0C906.7 0 853.3 0 800 0C746.7 0 693.3 0 640 0C586.7 0 533.3 0 480 0C426.7 0 373.3 0 320 0C266.7 0 213.3 0 160 0C106.7 0 53.3 0 26.7 0L0 0Z" fill="#205165"/><path d="M0 95L26.7 94C53.3 93 106.7 91 160 94.8C213.3 98.7 266.7 108.3 320 108.5C373.3 108.7 426.7 99.3 480 97.2C533.3 95 586.7 100 640 99.8C693.3 99.7 746.7 94.3 800 91.2C853.3 88 906.7 87 960 87.2C1013.3 87.3 1066.7 88.7 1120 94.3C1173.3 100 1226.7 110 1280 116.3C1333.3 122.7 1386.7 125.3 1440 124.5C1493.3 123.7 1546.7 119.3 1600 116C1653.3 112.7 1706.7 110.3 1760 110C1813.3 109.7 1866.7 111.3 1893.3 112.2L1920 113L1920 0L1893.3 0C1866.7 0 1813.3 0 1760 0C1706.7 0 1653.3 0 1600 0C1546.7 0 1493.3 0 1440 0C1386.7 0 1333.3 0 1280 0C1226.7 0 1173.3 0 1120 0C1066.7 0 1013.3 0 960 0C906.7 0 853.3 0 800 0C746.7 0 693.3 0 640 0C586.7 0 533.3 0 480 0C426.7 0 373.3 0 320 0C266.7 0 213.3 0 160 0C106.7 0 53.3 0 26.7 0L0 0Z" fill="#18587a"/><path d="M0 95L26.7 94C53.3 93 106.7 91 160 91C213.3 91 266.7 93 320 91.3C373.3 89.7 426.7 84.3 480 84.3C533.3 84.3 586.7 89.7 640 89.2C693.3 88.7 746.7 82.3 800 83.5C853.3 84.7 906.7 93.3 960 93.2C1013.3 93 1066.7 84 1120 78.7C1173.3 73.3 1226.7 71.7 1280 74.5C1333.3 77.3 1386.7 84.7 1440 84.2C1493.3 83.7 1546.7 75.3 1600 70.8C1653.3 66.3 1706.7 65.7 1760 70.2C1813.3 74.7 1866.7 84.3 1893.3 89.2L1920 94L1920 0L1893.3 0C1866.7 0 1813.3 0 1760 0C1706.7 0 1653.3 0 1600 0C1546.7 0 1493.3 0 1440 0C1386.7 0 1333.3 0 1280 0C1226.7 0 1173.3 0 1120 0C1066.7 0 1013.3 0 960 0C906.7 0 853.3 0 800 0C746.7 0 693.3 0 640 0C586.7 0 533.3 0 480 0C426.7 0 373.3 0 320 0C266.7 0 213.3 0 160 0C106.7 0 53.3 0 26.7 0L0 0Z" fill="#205e8e"/><path d="M0 40L26.7 44.7C53.3 49.3 106.7 58.7 160 59.2C213.3 59.7 266.7 51.3 320 49.2C373.3 47 426.7 51 480 53.7C533.3 56.3 586.7 57.7 640 56.2C693.3 54.7 746.7 50.3 800 47.8C853.3 45.3 906.7 44.7 960 48.3C1013.3 52 1066.7 60 1120 60.8C1173.3 61.7 1226.7 55.3 1280 52.5C1333.3 49.7 1386.7 50.3 1440 50.3C1493.3 50.3 1546.7 49.7 1600 50.2C1653.3 50.7 1706.7 52.3 1760 51.3C1813.3 50.3 1866.7 46.7 1893.3 44.8L1920 43L1920 0L1893.3 0C1866.7 0 1813.3 0 1760 0C1706.7 0 1653.3 0 1600 0C1546.7 0 1493.3 0 1440 0C1386.7 0 1333.3 0 1280 0C1226.7 0 1173.3 0 1120 0C1066.7 0 1013.3 0 960 0C906.7 0 853.3 0 800 0C746.7 0 693.3 0 640 0C586.7 0 533.3 0 480 0C426.7 0 373.3 0 320 0C266.7 0 213.3 0 160 0C106.7 0 53.3 0 26.7 0L0 0Z" fill="#3961a1"/><path d="M0 45L26.7 45C53.3 45 106.7 45 160 44.2C213.3 43.3 266.7 41.7 320 37.8C373.3 34 426.7 28 480 25.3C533.3 22.7 586.7 23.3 640 24C693.3 24.7 746.7 25.3 800 26C853.3 26.7 906.7 27.3 960 29.3C1013.3 31.3 1066.7 34.7 1120 36.8C1173.3 39 1226.7 40 1280 41.7C1333.3 43.3 1386.7 45.7 1440 45.3C1493.3 45 1546.7 42 1600 39.7C1653.3 37.3 1706.7 35.7 1760 34.2C1813.3 32.7 1866.7 31.3 1893.3 30.7L1920 30L1920 0L1893.3 0C1866.7 0 1813.3 0 1760 0C1706.7 0 1653.3 0 1600 0C1546.7 0 1493.3 0 1440 0C1386.7 0 1333.3 0 1280 0C1226.7 0 1173.3 0 1120 0C1066.7 0 1013.3 0 960 0C906.7 0 853.3 0 800 0C746.7 0 693.3 0 640 0C586.7 0 533.3 0 480 0C426.7 0 373.3 0 320 0C266.7 0 213.3 0 160 0C106.7 0 53.3 0 26.7 0L0 0Z" fill="#5a62af"/></svg>