<svg width="70" height="70" viewBox="0 0 70 70" fill="none" xmlns="http://www.w3.org/2000/svg">
<path d="M35.0022 0.74291C15.6657 0.74291 0 16.4217 0 35.7451C0 51.2183 10.0281 64.3331 23.9262 68.96C25.6829 69.2903 26.3173 68.2074 26.3173 67.2711C26.3173 66.4398 26.2976 64.2413 26.2845 61.3229C16.5429 63.4318 14.4909 56.6173 14.4909 56.6173C12.8961 52.5833 10.5947 51.5005 10.5947 51.5005C7.42703 49.3369 10.8463 49.3828 10.8463 49.3828C14.3553 49.6213 16.2016 52.9815 16.2016 52.9815C19.3234 58.3368 24.3922 56.788 26.3982 55.8867C26.7045 53.6312 27.6167 52.0802 28.6099 51.2161C20.8394 50.3388 12.6686 47.3308 12.6686 33.9184C12.6686 30.0879 14.0249 26.9683 16.2673 24.5181C15.8801 23.6409 14.6944 20.0751 16.5757 15.2535C16.5757 15.2535 19.505 14.3194 26.2013 18.8434C29.0037 18.0668 31.9789 17.6796 34.9519 17.6599C37.9271 17.6796 40.9001 18.069 43.7024 18.8434C50.3594 14.3194 53.2865 15.2535 53.2865 15.2535C55.1656 20.0751 53.9799 23.6387 53.6387 24.5181C55.8591 26.9683 57.2155 30.0901 57.2155 33.9184C57.2155 47.3614 49.0337 50.3257 41.2545 51.1811C42.4708 52.2289 43.6105 54.3838 43.6105 57.6543C43.6105 62.3358 43.5668 66.1073 43.5668 67.2471C43.5668 68.1571 44.1793 69.2509 45.9819 68.8987C59.9828 64.32 70 51.1942 70 35.7429C70 16.4195 54.3343 0.740723 34.9978 0.740723L35.0022 0.74291Z" fill="#CCD0D8"/>
</svg>
