<svg width="124" height="93" viewBox="0 0 124 93" fill="none" xmlns="http://www.w3.org/2000/svg">
<path d="M113.667 0.899902H10.033C4.83837 0.899902 0.599976 5.1383 0.599976 10.3329V83.316C0.599976 88.5107 4.83837 92.7491 10.033 92.7491H113.667C118.862 92.7491 123.1 88.5107 123.1 83.316V10.3329C123.1 5.1383 118.862 0.899902 113.667 0.899902ZM112.297 7.87775L62.4961 50.4685L12.6949 7.87775H112.297ZM116.122 83.316C116.122 84.6599 115.011 85.7712 113.667 85.7712H10.033C8.68911 85.7712 7.57782 84.6599 7.57782 83.316V12.6847L60.2218 57.7048C60.2477 57.7306 60.2993 57.7564 60.3252 57.7823C60.351 57.8081 60.4027 57.834 60.4286 57.8598C60.5061 57.9115 60.5578 57.9632 60.6353 57.989C60.6612 58.0149 60.687 58.0149 60.7128 58.0407C60.8162 58.0924 60.9196 58.1441 61.023 58.1958C61.0488 58.1958 61.0747 58.2216 61.1005 58.2216C61.178 58.2475 61.2556 58.2992 61.3589 58.325C61.3848 58.325 61.4365 58.3508 61.4623 58.3508C61.5399 58.3767 61.6174 58.4025 61.6949 58.4025C61.7208 58.4025 61.7724 58.4284 61.7983 58.4284C61.8758 58.4542 61.9792 58.4542 62.0567 58.4801C62.0826 58.4801 62.1084 58.4801 62.1343 58.4801C62.2376 58.4801 62.3669 58.5059 62.4702 58.5059C62.5736 58.5059 62.7028 58.5059 62.8062 58.4801C62.832 58.4801 62.8579 58.4801 62.8837 58.4801C62.9613 58.4801 63.0646 58.4542 63.1422 58.4284C63.168 58.4284 63.2197 58.4025 63.2455 58.4025C63.3231 58.3767 63.4006 58.3508 63.4781 58.3508C63.504 58.3508 63.5557 58.325 63.5815 58.325C63.659 58.2992 63.7366 58.2733 63.84 58.2216C63.8658 58.2216 63.8916 58.1958 63.9175 58.1958C64.0209 58.1441 64.1242 58.0924 64.2276 58.0407C64.2535 58.0149 64.2793 58.0149 64.3051 57.989C64.3827 57.9373 64.4344 57.9115 64.5119 57.8598C64.5377 57.834 64.5894 57.8081 64.6153 57.7823C64.6411 57.7564 64.6928 57.7306 64.7187 57.7048L116.122 13.796V83.316Z" fill="#D9D9D9"/>
</svg>
