<svg width="124" height="123" viewBox="0 0 124 123" fill="none" xmlns="http://www.w3.org/2000/svg">
<path d="M61.85 0.199951C28.0247 0.199951 0.599976 27.6246 0.599976 61.45C0.599976 95.2753 28.0247 122.7 61.85 122.7C95.6753 122.7 123.1 95.2753 123.1 61.45C123.1 27.6246 95.6753 0.199951 61.85 0.199951ZM91.9339 42.1613L81.8787 89.528C81.1386 92.8865 79.1378 93.7032 76.3458 92.1209L61.0333 80.8407L53.6527 87.9559C52.9381 88.8746 51.8305 89.4616 50.5902 89.4616C50.58 89.4616 50.5749 89.4616 50.5647 89.4616L51.6518 73.8735L80.031 48.2404C81.256 47.1532 79.7554 46.5356 78.1272 47.6228L43.0666 69.7034L27.9583 64.9871C24.6916 63.951 24.5998 61.7205 28.6474 60.1178L87.6822 37.3634C90.4282 36.363 92.8169 38.0167 91.9288 42.1664L91.9339 42.1613Z" fill="#D9D9D9"/>
</svg>
