<svg width="124" height="101" viewBox="0 0 124 101" fill="none" xmlns="http://www.w3.org/2000/svg">
<path d="M120.624 12.2746C118.699 13.1281 116.721 13.8485 114.699 14.4333C117.093 11.7265 118.917 8.54151 120.031 5.05619C120.281 4.27496 120.022 3.41984 119.38 2.9089C118.739 2.39756 117.848 2.33631 117.142 2.75478C112.848 5.30119 108.216 7.13118 103.359 8.20127C98.4667 3.42063 91.8217 0.699951 84.9522 0.699951C70.4518 0.699951 58.6547 12.4967 58.6547 26.9967C58.6547 28.1387 58.727 29.2744 58.8701 30.3942C40.8765 28.8144 24.1482 19.9703 12.6609 5.87931C12.2515 5.37706 11.6208 5.10638 10.9751 5.15815C10.329 5.20873 9.74853 5.57306 9.42213 6.13301C7.09227 10.1308 5.86055 14.7032 5.86055 19.3555C5.86055 25.6918 8.12284 31.7038 12.1191 36.4015C10.904 35.9806 9.72482 35.4547 8.59941 34.8299C7.99521 34.4936 7.25784 34.4988 6.65759 34.843C6.05695 35.1871 5.68036 35.8202 5.66455 36.5121C5.66179 36.6287 5.66179 36.7453 5.66179 36.8634C5.66179 46.3216 10.7522 54.8369 18.5349 59.478C17.8663 59.4112 17.1981 59.3144 16.5342 59.1876C15.8498 59.0568 15.146 59.2966 14.6845 59.8187C14.2221 60.3403 14.0692 61.0674 14.2822 61.7312C17.1629 70.7251 24.5797 77.3404 33.5459 79.3573C26.1093 84.0151 17.6051 86.4548 8.67765 86.4548C6.81486 86.4548 4.94141 86.3454 3.10787 86.1284C2.19702 86.0201 1.32609 86.558 1.01589 87.4241C0.705689 88.2907 1.03446 89.2569 1.80937 89.7536C13.2781 97.1071 26.5393 100.994 40.1585 100.994C66.9321 100.994 83.681 88.3686 93.0166 77.7771C104.658 64.5705 111.335 47.0898 111.335 29.8177C111.335 29.0961 111.324 28.3675 111.301 27.6412C115.894 24.1808 119.849 19.9928 123.067 15.1794C123.555 14.4484 123.502 13.4822 122.936 12.8092C122.371 12.1359 121.428 11.9181 120.624 12.2746Z" fill="#D9D9D9"/>
</svg>
