<svg width="101" height="99" viewBox="0 0 101 99" fill="none" xmlns="http://www.w3.org/2000/svg">
<path d="M70.9769 48.3281C73.0217 49.568 74.8415 50.8877 75.8358 52.5064L73.0661 52.4531L70.9769 48.3281Z" fill="#D9D9D9"/>
<path d="M53.746 34.512C56.3933 35.2697 58.7233 36.8656 60.3863 39.0602C55.6299 38.2685 50.7456 38.9017 46.3483 40.88C47.9315 37.8378 50.1149 35.1481 52.7666 32.9733L52.95 32.8254C52.95 32.8254 56.6578 29.8307 60.3182 28.0434C62.6855 26.8953 73.9863 23.013 84.21 28.869C96.5436 35.9413 97.1295 51.3849 97.2626 54.9299C97.4571 60.9656 96.1784 66.958 93.5371 72.3886C89.903 78.9432 84.8593 84.6094 78.7698 88.9785C72.6804 93.3475 65.6971 96.3104 58.3238 97.6534C48.8132 99.4851 39.5719 98.1594 30.5082 94.6943C40.6786 94.57 48.8961 92.0311 53.8851 85.5211C27.8627 94.647 15.1771 85.4175 6.24352 71.0215C15.7422 77.1232 25.2203 79.8367 34.6509 75.7561C29.7538 75.7326 24.9199 74.6473 20.4827 72.575C17.889 71.7652 15.4364 70.5584 13.2122 68.9975C6.16363 64.035 3.66318 56.9716 2.69852 54.1132C1.04162 49.1377 0.580361 43.8418 1.35212 38.6548C2.02383 34.186 3.58334 29.8968 5.93874 26.0401C5.051 39.2673 5.83221 51.6245 18.6629 57.7025C15.9753 55.6399 13.9584 52.8281 12.866 49.6212C12.1615 47.489 11.8908 45.2372 12.07 42.9988C10.8412 37.8393 10.7846 32.4701 11.9043 27.2859C12.4428 24.8151 14.2716 16.8906 21.1071 10.2829C24.9303 6.5988 28.9547 4.66059 31.1681 3.62786C35.0763 1.79635 39.2415 0.572933 43.5194 0L31.387 7.98958C21.1101 17.077 16.6152 28.1115 21.622 42.3152C25.6227 55.14 35.6274 64.8044 48.8458 72.794C55.2191 75.7625 62.002 77.7575 68.9677 78.7122C60.5342 74.8121 56.9833 67.0474 59.0132 62.0465C60.4928 58.4482 64.5852 56.9628 66.0086 56.5189C71.6309 55.9774 76.6288 58.4423 80.8041 64.8044C82.7334 62.2211 82.4553 59.0341 78.1409 54.7434C78.3162 52.2218 77.9479 49.6919 77.0608 47.325C74.7853 41.3269 69.8051 38.5098 67.8136 37.3853C61.8925 34.0356 56.1133 34.2753 53.746 34.512Z" fill="#D9D9D9"/>
<path d="M43.5371 0.0266113C28.928 16.6716 25.7529 34.3996 34.0502 52.6721C38.6428 62.7863 46.1293 67.9529 49.337 70.2462C55.2074 74.4261 61.8985 77.3118 68.9677 78.7122C61.2148 77.7416 47.3484 74.7292 35.8582 64.0853C32.9614 61.36 30.3707 58.3267 28.132 55.0393C21.0302 45.2062 18.0563 33.3432 20.1424 25.1524C23.356 13.0644 32.1446 4.70792 43.5371 0.0266113Z" fill="#B3B3B3"/>
<path d="M93.5549 72.3501C94.8444 69.4342 95.7209 66.3527 96.1589 63.1946C97.4698 53.6367 95.5286 36.9562 82.5085 29.9195C71.7108 24.0812 60.3153 28.6826 59.5193 29.0318C51.5297 32.4199 47.5881 38.7021 46.3483 40.8889C46.9101 36.8526 48.4045 33.0026 50.713 29.6443C56.0394 21.9506 63.9224 19.6573 66.3962 19.0537C67.7929 18.7163 77.268 16.5799 86.5684 22.0128C98.4049 28.9164 100.24 42.401 100.674 45.6027C102.586 59.5756 95.3244 69.9591 93.5549 72.3501Z" fill="#B3B3B3"/>
<path d="M5.93874 26.0401C5.90778 27.1951 5.95524 28.3508 6.08077 29.4993C6.31497 31.6466 6.82724 33.7544 7.60471 35.7696C8.651 38.4284 10.1642 40.8786 12.073 43.0046C13.0162 48.586 15.4345 53.8137 19.0772 58.1464C15.1995 56.3966 11.8323 53.6864 9.29436 50.2722C1.81078 40.0337 5.43273 27.6676 5.93874 26.0401Z" fill="#B3B3B3"/>
<path d="M20.4798 72.575C22.0629 73.1402 23.791 73.6787 25.6523 74.1581C28.6037 74.9188 31.6091 75.452 34.6421 75.7531C31.3453 77.177 27.7935 77.9159 24.2023 77.925C14.7835 77.925 8.24684 72.7525 6.23465 71.0185C10.6143 73.3235 15.7057 73.8798 20.4798 72.575V72.575Z" fill="#B3B3B3"/>
<path d="M53.8762 85.5181C48.3901 92.691 39.9477 94.6499 30.4993 94.6914C35.4617 94.0551 38.6161 91.8477 41.1521 88.7465C43.1258 88.4181 45.2416 87.989 47.4757 87.4238C49.7956 86.8497 51.9292 86.1898 53.8762 85.5181Z" fill="#B3B3B3"/>
<path d="M68.9677 78.7122C62.1884 77.3381 55.7505 74.6281 50.0294 70.7403C49.9525 69.7165 49.5767 63.02 54.6101 58.2174C56.6336 56.3174 59.1441 55.0155 61.8629 54.4564C60.7976 53.0123 58.9038 51.9737 56.3619 51.2546C67.3283 50.79 76.9602 52.6306 80.7656 64.7955C80.6177 64.9671 74.4065 56.8237 67.7456 56.8976C64.9433 56.9272 61.6054 58.4689 60.1436 61.4458C58.3267 65.1387 60.9633 69.4354 62.5375 72.0423C64.1626 74.7127 66.3585 76.9905 68.9677 78.7122Z" fill="#B3B3B3"/>
</svg>
