<svg width="83" height="70" viewBox="0 0 83 70" fill="none" xmlns="http://www.w3.org/2000/svg">
<path d="M74.6824 13.5451C66.5719 8.86321 56.2007 11.6453 51.5137 19.7558L39.6989 40.2225C36.2802 46.1326 40.6813 48.1978 45.5888 51.1402L56.9575 57.7018C60.8073 59.9225 65.7248 58.6042 67.9455 54.7594L80.0912 33.7261C84.1714 26.6583 81.7503 17.6255 74.6824 13.5451Z" fill="#ACACAC"/>
<path d="M61.3138 22.0163L49.9451 15.4547C43.6693 11.9709 40.1153 11.7403 37.5386 15.8357L20.7713 44.8743C16.0894 52.9798 18.8765 63.3461 26.982 68.0179C34.0498 72.0982 43.0828 69.677 47.1631 62.6091L64.2513 33.0091C66.4819 29.1594 65.1636 24.2369 61.3138 22.0163Z" fill="#F2F2F2"/>
<path d="M63.502 7.08867L55.5168 2.477C46.6845 -2.62091 35.391 0.401739 30.2931 9.23409L15.0895 35.5657C12.8439 39.4506 14.1772 44.4231 18.0621 46.6638L27.0048 51.8269C31.4208 54.3785 37.0651 52.8646 39.6167 48.4483L56.9856 18.3673C60.5847 12.1364 68.5499 10.001 74.7806 13.6002L63.502 7.08867Z" fill="#CCD0D8"/>
<path d="M32.4529 16.7679L23.821 11.7953C19.9712 9.57973 15.0538 10.893 12.8332 14.7328L2.477 32.6281C-2.62092 41.4353 0.401741 52.704 9.2341 57.7869L15.8057 61.5713L23.7759 66.1629L27.2347 68.1529C21.0941 64.0427 19.1442 55.8068 22.8986 49.3203L25.5804 44.6886L35.4003 27.7206C37.6159 23.891 36.2976 18.9835 32.4529 16.7679Z" fill="#B0B0B0"/>
</svg>
