<svg width="60" height="70" viewBox="0 0 60 70" fill="none" xmlns="http://www.w3.org/2000/svg">
<path d="M52.6082 17.6917C51.7143 7.7823 43.2396 0 32.9453 0H9.60774C8.88454 0 8.27174 0.509551 8.17106 1.21475L0.0142528 58.3495C-0.0444862 58.7597 0.0800737 59.1851 0.355717 59.4977C0.631359 59.8102 1.03087 59.9998 1.45107 59.9998H8.71929C8.03442 64.6736 7.29192 68.2378 7.28484 68.2742C7.19694 68.6941 7.30608 69.137 7.58173 69.4691C7.85737 69.8026 8.26965 70 8.7061 70H23.6807C24.4019 70 25.014 69.405 25.1168 68.7019L27.8415 50H40.42C50.9354 50 59.4902 41.8467 59.4902 31.7363C59.4901 26.2385 56.9836 21.192 52.6082 17.6917ZM10.869 2.85715H32.9455C42.233 2.85715 49.789 10.3209 49.789 19.4775C49.789 28.6133 42.233 36.0713 32.9455 36.0713H18.974C18.2507 36.0713 17.6379 36.5708 17.5372 37.2766L14.6983 57.1427H3.12034L10.869 2.85715ZM40.4199 47.1428H26.5846C25.8633 47.1428 25.2511 47.7378 25.1484 48.441L22.4235 67.1429H10.4635C10.7513 65.7143 11.1827 63.2066 11.5929 60.4052C11.6135 60.2643 11.6057 60 11.5854 60H15.9592C16.6825 60 17.2953 59.5005 17.396 58.7947L20.2349 38.9286H32.9452C43.0958 38.9286 51.4782 31.3134 52.5673 21.5973C55.1473 24.4033 56.588 27.9271 56.588 31.7491C56.5881 40.2843 49.3354 47.1428 40.4199 47.1428Z" fill="#CCD0D8"/>
</svg>
